<mxfile host="app.diagrams.net" modified="2021-04-22T02:33:27.279Z" agent="5.0 (Windows NT 10.0; WOW64) AppleWebKit/537.36 (KHTML, like Gecko) Chrome/86.0.4240.198 Safari/537.36" etag="frKf2kSNea7hRatE65Li" version="14.6.3" type="github">
  <diagram id="C5RBs43oDa-KdzZeNtuy" name="Page-1">
    <mxGraphModel dx="1408" dy="747" grid="1" gridSize="10" guides="1" tooltips="1" connect="1" arrows="1" fold="1" page="0" pageScale="1" pageWidth="827" pageHeight="1169" math="0" shadow="0">
      <root>
        <mxCell id="WIyWlLk6GJQsqaUBKTNV-0" />
        <mxCell id="WIyWlLk6GJQsqaUBKTNV-1" parent="WIyWlLk6GJQsqaUBKTNV-0" />
        <mxCell id="v1CpLveAT3JwUYf-RZQQ-5" value="&lt;span style=&quot;font-family: &amp;#34;times new roman&amp;#34; ; font-size: 21px&quot;&gt;DG-1&lt;/span&gt;" style="ellipse;whiteSpace=wrap;html=1;rounded=1;strokeColor=#b85450;strokeWidth=2;fillColor=#f8cecc;direction=north;" vertex="1" parent="WIyWlLk6GJQsqaUBKTNV-1">
          <mxGeometry x="139.995" y="99.70499999999998" width="79.25" height="80" as="geometry" />
        </mxCell>
        <mxCell id="v1CpLveAT3JwUYf-RZQQ-15" value="&lt;span style=&quot;font-family: &amp;#34;times new roman&amp;#34; ; font-size: 21px&quot;&gt;ESS-2&lt;br&gt;&lt;/span&gt;" style="ellipse;whiteSpace=wrap;html=1;rounded=1;strokeColor=#6c8ebf;strokeWidth=2;fillColor=#dae8fc;direction=north;" vertex="1" parent="WIyWlLk6GJQsqaUBKTNV-1">
          <mxGeometry x="369.985" y="99.70499999999998" width="79.25" height="80" as="geometry" />
        </mxCell>
        <mxCell id="v1CpLveAT3JwUYf-RZQQ-24" value="&lt;span style=&quot;font-family: &amp;#34;times new roman&amp;#34; ; font-size: 21px&quot;&gt;DG-3&lt;/span&gt;" style="ellipse;whiteSpace=wrap;html=1;rounded=1;strokeColor=#b85450;strokeWidth=2;fillColor=#f8cecc;direction=north;" vertex="1" parent="WIyWlLk6GJQsqaUBKTNV-1">
          <mxGeometry x="139.995" y="279.275" width="79.25" height="80" as="geometry" />
        </mxCell>
        <mxCell id="v1CpLveAT3JwUYf-RZQQ-29" value="&lt;span style=&quot;font-family: &amp;#34;times new roman&amp;#34; ; font-size: 21px&quot;&gt;ESS-4&lt;br&gt;&lt;/span&gt;" style="ellipse;whiteSpace=wrap;html=1;rounded=1;strokeColor=#6c8ebf;strokeWidth=2;fillColor=#dae8fc;direction=north;" vertex="1" parent="WIyWlLk6GJQsqaUBKTNV-1">
          <mxGeometry x="369.985" y="279.275" width="79.25" height="80" as="geometry" />
        </mxCell>
        <mxCell id="v1CpLveAT3JwUYf-RZQQ-39" value="&lt;span style=&quot;font-family: &amp;#34;times new roman&amp;#34; ; font-size: 21px&quot;&gt;ESS-6&lt;br&gt;&lt;/span&gt;" style="ellipse;whiteSpace=wrap;html=1;rounded=1;strokeColor=#6c8ebf;strokeWidth=2;fillColor=#dae8fc;direction=north;" vertex="1" parent="WIyWlLk6GJQsqaUBKTNV-1">
          <mxGeometry x="369.605" y="470.09" width="80.01" height="80" as="geometry" />
        </mxCell>
        <mxCell id="v1CpLveAT3JwUYf-RZQQ-48" value="&lt;span style=&quot;font-family: &amp;#34;times new roman&amp;#34; ; font-size: 21px&quot;&gt;DG-5&lt;/span&gt;" style="ellipse;whiteSpace=wrap;html=1;rounded=1;strokeColor=#b85450;strokeWidth=2;fillColor=#f8cecc;direction=north;" vertex="1" parent="WIyWlLk6GJQsqaUBKTNV-1">
          <mxGeometry x="139.995" y="470.09" width="79.25" height="80" as="geometry" />
        </mxCell>
        <mxCell id="v1CpLveAT3JwUYf-RZQQ-61" value="" style="endArrow=classic;startArrow=classic;html=1;dashed=1;exitX=0.5;exitY=1;exitDx=0;exitDy=0;entryX=0.5;entryY=0;entryDx=0;entryDy=0;strokeWidth=2;" edge="1" parent="WIyWlLk6GJQsqaUBKTNV-1" source="v1CpLveAT3JwUYf-RZQQ-5" target="v1CpLveAT3JwUYf-RZQQ-15">
          <mxGeometry width="50" height="50" relative="1" as="geometry">
            <mxPoint x="260" y="160" as="sourcePoint" />
            <mxPoint x="310" y="110" as="targetPoint" />
          </mxGeometry>
        </mxCell>
        <mxCell id="v1CpLveAT3JwUYf-RZQQ-62" value="" style="endArrow=classic;startArrow=classic;html=1;dashed=1;entryX=1;entryY=0.5;entryDx=0;entryDy=0;strokeWidth=2;" edge="1" parent="WIyWlLk6GJQsqaUBKTNV-1" source="v1CpLveAT3JwUYf-RZQQ-15" target="v1CpLveAT3JwUYf-RZQQ-29">
          <mxGeometry width="50" height="50" relative="1" as="geometry">
            <mxPoint x="309.9950000000049" y="220.00499999999994" as="sourcePoint" />
            <mxPoint x="460.7350000000049" y="220.00499999999994" as="targetPoint" />
          </mxGeometry>
        </mxCell>
        <mxCell id="v1CpLveAT3JwUYf-RZQQ-63" value="" style="endArrow=classic;startArrow=classic;html=1;dashed=1;exitX=0;exitY=0.5;exitDx=0;exitDy=0;strokeWidth=2;" edge="1" parent="WIyWlLk6GJQsqaUBKTNV-1" source="v1CpLveAT3JwUYf-RZQQ-29">
          <mxGeometry width="50" height="50" relative="1" as="geometry">
            <mxPoint x="319.9950000000049" y="410.00499999999994" as="sourcePoint" />
            <mxPoint x="410" y="470" as="targetPoint" />
          </mxGeometry>
        </mxCell>
        <mxCell id="v1CpLveAT3JwUYf-RZQQ-64" value="" style="endArrow=classic;startArrow=classic;html=1;dashed=1;exitX=0.5;exitY=1;exitDx=0;exitDy=0;entryX=0.5;entryY=0;entryDx=0;entryDy=0;strokeWidth=2;" edge="1" parent="WIyWlLk6GJQsqaUBKTNV-1">
          <mxGeometry width="50" height="50" relative="1" as="geometry">
            <mxPoint x="218.8650000000049" y="509.5949999999999" as="sourcePoint" />
            <mxPoint x="369.6050000000049" y="509.5949999999999" as="targetPoint" />
          </mxGeometry>
        </mxCell>
        <mxCell id="v1CpLveAT3JwUYf-RZQQ-65" value="" style="endArrow=classic;startArrow=classic;html=1;dashed=1;entryX=1;entryY=0.5;entryDx=0;entryDy=0;strokeWidth=2;" edge="1" parent="WIyWlLk6GJQsqaUBKTNV-1" target="v1CpLveAT3JwUYf-RZQQ-24">
          <mxGeometry width="50" height="50" relative="1" as="geometry">
            <mxPoint x="180" y="180" as="sourcePoint" />
            <mxPoint x="330.7350000000049" y="210.00499999999994" as="targetPoint" />
          </mxGeometry>
        </mxCell>
        <mxCell id="v1CpLveAT3JwUYf-RZQQ-66" value="" style="endArrow=classic;startArrow=classic;html=1;dashed=1;entryX=1;entryY=0.5;entryDx=0;entryDy=0;strokeWidth=2;" edge="1" parent="WIyWlLk6GJQsqaUBKTNV-1" target="v1CpLveAT3JwUYf-RZQQ-48">
          <mxGeometry width="50" height="50" relative="1" as="geometry">
            <mxPoint x="180" y="360" as="sourcePoint" />
            <mxPoint x="320.7350000000049" y="420.00499999999994" as="targetPoint" />
          </mxGeometry>
        </mxCell>
      </root>
    </mxGraphModel>
  </diagram>
</mxfile>
